<?xml version="1.0" encoding="UTF-8"?>
<!DOCTYPE svg PUBLIC "-//W3C//DTD SVG 1.1//EN" "http://www.w3.org/Graphics/SVG/1.1/DTD/svg11.dtd">
<svg xmlns="http://www.w3.org/2000/svg" version="1.1" width="500px" height="500px" style="shape-rendering:geometricPrecision; text-rendering:geometricPrecision; image-rendering:optimizeQuality; fill-rule:evenodd; clip-rule:evenodd" xmlns:xlink="http://www.w3.org/1999/xlink">
<g><path style="opacity:0.851" fill="#f3756f" d="M 242.5,8.5 C 245.817,7.83478 249.317,7.50145 253,7.5C 258.421,7.32584 263.587,7.9925 268.5,9.5C 259.858,8.70129 251.191,8.36796 242.5,8.5 Z"/></g>
<g><path style="opacity:1" fill="#ee3f39" d="M 242.5,8.5 C 251.191,8.36796 259.858,8.70129 268.5,9.5C 270.903,9.44805 273.236,9.78138 275.5,10.5C 282.289,11.8754 289.289,12.5421 296.5,12.5C 300.606,12.7399 304.606,13.4066 308.5,14.5C 308.611,15.1174 308.944,15.6174 309.5,16C 313.869,16.8423 318.203,17.8423 322.5,19C 321.304,19.6543 321.304,20.1543 322.5,20.5C 323.417,19.8728 324.417,19.5394 325.5,19.5C 327.292,19.366 328.958,19.6993 330.5,20.5C 332.304,21.3807 333.804,22.714 335,24.5C 336.771,24.9198 338.604,24.9198 340.5,24.5C 348.289,24.6456 354.955,27.3122 360.5,32.5C 360.548,35.6352 362.215,37.3019 365.5,37.5C 366.511,40.8962 368.511,41.8962 371.5,40.5C 372.647,40.8178 373.481,41.4844 374,42.5C 375.016,41.3659 375.683,41.6992 376,43.5C 376.383,42.944 376.883,42.6107 377.5,42.5C 381.377,44.8725 385.377,47.0392 389.5,49C 400.489,58.9827 411.822,68.6494 423.5,78C 429.534,81.0284 434.701,85.1951 439,90.5C 447.141,107.45 455.808,124.116 465,140.5C 470.266,153.965 474.933,167.632 479,181.5C 479.667,182.167 480.333,182.833 481,183.5C 481.677,191.2 482.511,198.867 483.5,206.5C 483.803,211.43 483.469,216.263 482.5,221C 483.244,222.039 484.244,222.539 485.5,222.5C 488.469,225.642 491.302,228.975 494,232.5C 494.29,236.863 494.79,241.196 495.5,245.5C 493.561,248.615 491.394,251.615 489,254.5C 486.428,266.638 483.928,278.804 481.5,291C 482.21,293.88 483.877,296.047 486.5,297.5C 486.427,299.027 487.094,300.027 488.5,300.5C 487.081,301.451 485.415,301.784 483.5,301.5C 481.883,300.962 480.216,300.629 478.5,300.5C 472.603,321.284 464.269,340.951 453.5,359.5C 451.897,359.312 450.563,359.812 449.5,361C 449.833,361.333 450.167,361.667 450.5,362C 448.59,366.216 445.923,369.216 442.5,371C 443.823,371.816 444.489,372.983 444.5,374.5C 436.14,382.194 428.14,390.194 420.5,398.5C 419.778,398.082 419.278,397.416 419,396.5C 418.751,397.624 418.251,398.624 417.5,399.5C 415.117,398.538 414.117,399.538 414.5,402.5C 412.897,402.312 411.563,402.812 410.5,404C 411.167,404.333 411.833,404.667 412.5,405C 410.321,405.442 409.655,406.442 410.5,408C 409.033,409.098 408.199,410.598 408,412.5C 406.594,413.668 405.428,413.335 404.5,411.5C 401.328,412.331 399.662,414.331 399.5,417.5C 390.767,423.562 381.767,429.229 372.5,434.5C 368.303,434.194 366.303,436.194 366.5,440.5C 362.54,439.792 358.707,439.792 355,440.5C 351.039,442.087 347.206,443.92 343.5,446C 342.663,447.011 342.33,448.178 342.5,449.5C 338.426,451.603 334.093,452.936 329.5,453.5C 327.833,453.5 326.167,453.5 324.5,453.5C 324.5,454.5 324.5,455.5 324.5,456.5C 322.418,456.472 320.584,457.139 319,458.5C 318.586,458.043 318.086,457.709 317.5,457.5C 316.948,459.003 316.948,460.669 317.5,462.5C 315.24,464.434 312.74,466.101 310,467.5C 309.506,469.134 309.34,470.801 309.5,472.5C 309.5,474.5 309.5,476.5 309.5,478.5C 305.686,478.349 304.019,476.349 304.5,472.5C 303.5,472.5 302.5,472.5 301.5,472.5C 298.079,466.096 293.746,465.263 288.5,470C 286.167,470.333 283.833,470.667 281.5,471C 280.216,472.297 280.383,473.464 282,474.5C 282.893,477.916 282.393,481.083 280.5,484C 278.613,484.78 276.946,484.613 275.5,483.5C 275.027,482.094 274.027,481.427 272.5,481.5C 271.696,479.811 270.696,478.145 269.5,476.5C 266.33,478.195 262.996,478.695 259.5,478C 258.5,475.667 256.833,474 254.5,473C 248.593,472.087 242.927,470.42 237.5,468C 234.183,467.502 230.85,467.335 227.5,467.5C 223.248,466.951 219.415,466.951 216,467.5C 215.421,468.928 215.588,470.262 216.5,471.5C 214.59,472.705 213.257,472.038 212.5,469.5C 207.526,468.359 203.859,465.526 201.5,461C 198.149,460.943 195.149,460.109 192.5,458.5C 191.399,457.402 190.066,457.235 188.5,458C 189.066,458.995 189.733,459.828 190.5,460.5C 192.074,462.102 192.741,464.102 192.5,466.5C 190.833,466.5 189.167,466.5 187.5,466.5C 188.186,470.321 187.186,473.488 184.5,476C 185.973,478.233 187.973,479.733 190.5,480.5C 190.918,481.222 191.584,481.722 192.5,482C 191.802,482.971 191.802,484.137 192.5,485.5C 191.005,487.99 190.005,490.657 189.5,493.5C 188.101,494.89 186.434,495.89 184.5,496.5C 182.5,496.5 180.5,496.5 178.5,496.5C 177.883,496.389 177.383,496.056 177,495.5C 176.032,490.64 176.532,485.974 178.5,481.5C 176.369,480.831 174.369,480.165 172.5,479.5C 171.631,477.283 171.298,474.95 171.5,472.5C 169.417,471.027 167.084,469.86 164.5,469C 167.802,465.732 167.302,462.566 163,459.5C 162.258,454.849 160.092,451.016 156.5,448C 146.382,446.439 137.382,442.439 129.5,436C 119.167,426.333 108.833,416.667 98.5,407C 93.7573,405.18 89.424,406.014 85.5,409.5C 84.6184,408.24 83.6184,407.074 82.5,406C 74.3238,405.335 66.3238,406.168 58.5,408.5C 59.7053,409.995 59.7053,411.328 58.5,412.5C 56.396,412.799 54.396,412.466 52.5,411.5C 51.4116,410.066 50.0783,409.066 48.5,408.5C 47.3876,407.628 46.0542,407.628 44.5,408.5C 43.2867,408.253 42.62,407.586 42.5,406.5C 42.9528,405.542 43.6195,404.708 44.5,404C 36.8083,395.712 28.8083,387.878 20.5,380.5C 19.5,380.5 18.5,380.5 17.5,380.5C 17.5,379.5 17.5,378.5 17.5,377.5C 17.8039,376.85 18.1373,376.183 18.5,375.5C 15.9226,372.29 13.9226,368.957 12.5,365.5C 10.5168,365.843 9.18342,365.176 8.5,363.5C 11.0723,360.052 12.239,356.052 12,351.5C 16.6233,345.208 21.6233,339.208 27,333.5C 29.2365,332.944 31.2365,331.944 33,330.5C 36.983,324.666 36.8163,318.833 32.5,313C 35.9896,309.185 37.6563,304.685 37.5,299.5C 37.8893,296.447 37.2227,293.78 35.5,291.5C 34.245,283.803 32.745,276.136 31,268.5C 30.5348,267.069 29.7014,265.903 28.5,265C 24.9212,263.294 21.4212,261.461 18,259.5C 14.9547,263.756 11.788,267.923 8.5,272C 4.81941,273.314 2.48608,272.147 1.5,268.5C 4.05308,263.771 7.21975,259.438 11,255.5C 11.1096,249.644 10.6096,243.81 9.5,238C 9.96822,232.023 11.1349,226.19 13,220.5C 17.9902,214.694 21.1569,208.028 22.5,200.5C 23.2644,198.26 24.0977,195.927 25,193.5C 25.3333,193.833 25.6667,194.167 26,194.5C 27.4947,192.89 27.6613,191.224 26.5,189.5C 27.7853,186.979 28.4519,184.313 28.5,181.5C 32.86,171.114 38.0266,161.114 44,151.5C 44.8811,147.624 46.2145,143.958 48,140.5C 48.0368,134.586 47.2034,128.753 45.5,123C 46.086,114.799 50.086,109.132 57.5,106C 62.4688,104.54 67.4688,103.206 72.5,102C 77.3658,96.3045 82.3658,90.8045 87.5,85.5C 88.9063,85.0269 89.573,84.0269 89.5,82.5C 99.38,72.6029 109.38,62.7695 119.5,53C 120.745,52.2086 122.078,51.7086 123.5,51.5C 127.093,50.5702 128.759,48.2368 128.5,44.5C 128.5,44.1667 128.5,43.8333 128.5,43.5C 130.655,41.3826 131.655,38.716 131.5,35.5C 132.5,35.5 133.5,35.5 134.5,35.5C 134.5,33.5 134.5,31.5 134.5,29.5C 134.833,28.8333 135.167,28.1667 135.5,27.5C 138.575,26.4748 141.575,25.4748 144.5,24.5C 147.167,24.5 149.833,24.5 152.5,24.5C 154.829,26.0946 157.495,27.0946 160.5,27.5C 161.416,27.4573 162.083,27.1239 162.5,26.5C 177.606,21.3883 192.939,16.8883 208.5,13C 211.343,11.4832 214.177,9.98318 217,8.5C 225.417,8.6508 233.917,8.6508 242.5,8.5 Z"/></g>
<g><path style="opacity:0.478" fill="#f69995" d="M 275.5,10.5 C 282.721,10.35 289.721,11.0167 296.5,12.5C 289.289,12.5421 282.289,11.8754 275.5,10.5 Z"/></g>
<g><path style="opacity:1" fill="#f77b70" d="M 308.5,14.5 C 312.777,15.522 317.111,16.3553 321.5,17C 323.066,17.6082 324.4,18.4415 325.5,19.5C 324.417,19.5394 323.417,19.8728 322.5,20.5C 321.304,20.1543 321.304,19.6543 322.5,19C 318.203,17.8423 313.869,16.8423 309.5,16C 308.944,15.6174 308.611,15.1174 308.5,14.5 Z"/></g>
<g><path style="opacity:1" fill="#f3655b" d="M 138.5,22.5 C 138.38,23.5862 137.713,24.2528 136.5,24.5C 135.287,24.2528 134.62,23.5862 134.5,22.5C 135.833,21.1667 137.167,21.1667 138.5,22.5 Z"/></g>
<g><path style="opacity:1" fill="#f36a60" d="M 330.5,20.5 C 331.873,20.3433 333.207,20.51 334.5,21C 336.618,22.0821 338.618,23.2488 340.5,24.5C 338.604,24.9198 336.771,24.9198 335,24.5C 333.804,22.714 332.304,21.3807 330.5,20.5 Z"/></g>
<g><path style="opacity:0.808" fill="#f6908b" d="M 134.5,22.5 C 134.62,23.5862 135.287,24.2528 136.5,24.5C 137.713,24.2528 138.38,23.5862 138.5,22.5C 140.114,24.0746 142.114,24.7413 144.5,24.5C 141.575,25.4748 138.575,26.4748 135.5,27.5C 135.918,26.7784 136.584,26.2784 137.5,26C 136.207,25.51 134.873,25.3433 133.5,25.5C 133.263,24.209 133.596,23.209 134.5,22.5 Z"/></g>
<g><path style="opacity:0.604" fill="#f7928c" d="M 152.5,24.5 C 155.833,25.1667 159.167,25.8333 162.5,26.5C 162.083,27.1239 161.416,27.4573 160.5,27.5C 157.495,27.0946 154.829,26.0946 152.5,24.5 Z"/></g>
<g><path style="opacity:0.596" fill="#f89f9a" d="M 134.5,29.5 C 134.5,31.5 134.5,33.5 134.5,35.5C 133.5,35.5 132.5,35.5 131.5,35.5C 132.842,33.6391 133.842,31.6391 134.5,29.5 Z"/></g>
<g><path style="opacity:1" fill="#fefdde" d="M 334.5,121.5 C 329.269,121.444 324.269,122.111 319.5,123.5C 304.954,125.07 291.621,129.903 279.5,138C 277.641,139.558 276.141,141.391 275,143.5C 266.319,175.376 258.152,207.376 250.5,239.5C 249.167,239.5 247.833,239.5 246.5,239.5C 239.301,209.038 231.634,178.704 223.5,148.5C 223.59,145.848 222.924,143.515 221.5,141.5C 219.473,135.303 215.473,130.803 209.5,128C 201.64,124.094 193.307,122.094 184.5,122C 169.139,121.186 153.806,121.519 138.5,123C 128.153,124.301 118.153,126.801 108.5,130.5C 107.833,124.167 107.167,117.833 106.5,111.5C 106.599,108.327 105.932,105.327 104.5,102.5C 104.754,100.583 105.754,99.2495 107.5,98.5C 118.66,99.5967 129.66,99.5967 140.5,98.5C 146.208,96.3467 152.042,96.0133 158,97.5C 169.156,93.7381 177.156,97.4048 182,108.5C 183.758,110.765 185.925,112.432 188.5,113.5C 189.449,114.152 190.615,114.486 192,114.5C 194.221,114.607 196.054,113.94 197.5,112.5C 200.244,106.564 202.244,100.23 203.5,93.5C 204.776,92.6136 204.776,91.6136 203.5,90.5C 202.893,90.6236 202.56,90.9569 202.5,91.5C 201.542,91.9528 200.708,92.6195 200,93.5C 199.156,99.9164 197.989,106.25 196.5,112.5C 195.833,112.5 195.167,112.5 194.5,112.5C 188.933,110.057 185.766,105.724 185,99.5C 183.942,95.7121 185.442,93.7121 189.5,93.5C 191.225,86.0505 194.058,79.0505 198,72.5C 206.793,68.2033 211.959,61.2033 213.5,51.5C 216.486,52.3551 219.486,52.8551 222.5,53C 226.752,49.4187 230.252,45.252 233,40.5C 234.579,38.9588 236.413,37.7922 238.5,37C 243.5,36.3333 248.5,36.3333 253.5,37C 256.5,40.6667 259.5,44.3333 262.5,48C 265.833,50 269.167,50 272.5,48C 275.535,44.6298 278.868,41.6298 282.5,39C 284.833,38.3333 287.167,38.3333 289.5,39C 290.103,40.8254 290.77,42.6587 291.5,44.5C 298.687,50.8546 306.02,57.0213 313.5,63C 318.167,65 322.833,67 327.5,69C 342.863,66.9505 357.197,69.9505 370.5,78C 381.336,84.5105 391.169,92.3438 400,101.5C 411.283,113.248 420.45,126.414 427.5,141C 424.988,146.607 424.155,152.441 425,158.5C 427.691,164.529 432.191,168.362 438.5,170C 439.667,171.167 440.833,172.333 442,173.5C 444.875,187.332 448.208,200.998 452,214.5C 456.781,276.952 439.114,332.286 399,380.5C 383.659,394.505 367.159,407.005 349.5,418C 339.284,424.288 328.284,427.954 316.5,429C 309.134,430.841 301.801,432.675 294.5,434.5C 292.833,434.167 291.167,433.833 289.5,433.5C 288.878,430.63 288.211,427.796 287.5,425C 285.833,424.333 284.167,424.333 282.5,425C 280.676,434.831 276.676,435.831 270.5,428C 269.552,427.517 268.552,427.351 267.5,427.5C 267.719,428.675 267.386,429.675 266.5,430.5C 263.61,427.528 261.276,427.861 259.5,431.5C 258.997,429.256 257.663,427.922 255.5,427.5C 253.682,428.636 251.682,429.303 249.5,429.5C 242.395,427.013 235.395,427.013 228.5,429.5C 225.141,428.961 221.807,428.295 218.5,427.5C 214.476,430.078 210.476,430.078 206.5,427.5C 205.387,429.031 203.887,430.031 202,430.5C 172.605,425.386 147.439,412.22 126.5,391C 122.664,388.916 118.997,386.583 115.5,384C 137.52,383.836 159.52,383.169 181.5,382C 189.301,381.712 196.468,379.546 203,375.5C 203.667,364.833 203.667,354.167 203,343.5C 201.276,318.817 199.443,294.151 197.5,269.5C 199.124,269.36 200.29,270.027 201,271.5C 207.845,304.544 214.845,337.544 222,370.5C 223.48,373.663 225.98,375.496 229.5,376C 240.869,376.793 252.202,376.46 263.5,375C 268.987,374.18 273.487,371.68 277,367.5C 283.205,335.476 289.538,303.476 296,271.5C 296.71,270.027 297.876,269.36 299.5,269.5C 297.667,296.162 295.833,322.829 294,349.5C 293.055,358.935 293.389,368.268 295,377.5C 298.617,380.558 302.784,382.391 307.5,383C 332.267,384.282 356.933,383.282 381.5,380C 386.684,378.941 391.518,377.107 396,374.5C 396.667,293.833 396.667,213.167 396,132.5C 391.652,128.242 386.486,125.408 380.5,124C 365.244,121.858 349.911,121.025 334.5,121.5 Z"/></g>
<g><path style="opacity:0.976" fill="#f78b83" d="M 131.5,35.5 C 131.655,38.716 130.655,41.3826 128.5,43.5C 128.903,40.5145 129.903,37.8478 131.5,35.5 Z"/></g>
<g><path style="opacity:1" fill="#f25e53" d="M 360.5,32.5 C 366.192,35.8734 371.858,39.2067 377.5,42.5C 376.883,42.6107 376.383,42.944 376,43.5C 375.683,41.6992 375.016,41.3659 374,42.5C 373.481,41.4844 372.647,40.8178 371.5,40.5C 368.511,41.8962 366.511,40.8962 365.5,37.5C 362.215,37.3019 360.548,35.6352 360.5,32.5 Z"/></g>
<g><path style="opacity:0.639" fill="#f7827a" d="M 128.5,44.5 C 128.759,48.2368 127.093,50.5702 123.5,51.5C 125.616,49.4 127.283,47.0667 128.5,44.5 Z"/></g>
<g><path style="opacity:0.757" fill="#f8928b" d="M 89.5,82.5 C 89.573,84.0269 88.9063,85.0269 87.5,85.5C 87.427,83.9731 88.0937,82.9731 89.5,82.5 Z"/></g>
<g><path style="opacity:1" fill="#f7a793" d="M 202.5,91.5 C 202.56,90.9569 202.893,90.6236 203.5,90.5C 204.776,91.6136 204.776,92.6136 203.5,93.5C 203.672,92.5084 203.338,91.8417 202.5,91.5 Z"/></g>
<g><path style="opacity:1" fill="#ef4e44" d="M 202.5,91.5 C 203.338,91.8417 203.672,92.5084 203.5,93.5C 202.244,100.23 200.244,106.564 197.5,112.5C 197.167,112.5 196.833,112.5 196.5,112.5C 197.989,106.25 199.156,99.9164 200,93.5C 200.708,92.6195 201.542,91.9528 202.5,91.5 Z"/></g>
<g><path style="opacity:1" fill="#f16054" d="M 107.5,98.5 C 118.318,98.1501 129.318,98.1501 140.5,98.5C 129.66,99.5967 118.66,99.5967 107.5,98.5 Z"/></g>
<g><path style="opacity:1" fill="#f5907f" d="M 194.5,112.5 C 195.167,112.5 195.833,112.5 196.5,112.5C 196.833,112.5 197.167,112.5 197.5,112.5C 196.054,113.94 194.221,114.607 192,114.5C 190.615,114.486 189.449,114.152 188.5,113.5C 190.735,113.795 192.735,113.461 194.5,112.5 Z"/></g>
<g><path style="opacity:1" fill="#fac4ac" d="M 106.5,111.5 C 107.167,117.833 107.833,124.167 108.5,130.5C 108.44,131.043 108.107,131.376 107.5,131.5C 106.503,124.866 106.17,118.2 106.5,111.5 Z"/></g>
<g><path style="opacity:1" fill="#f37364" d="M 334.5,121.5 C 329.731,122.889 324.731,123.556 319.5,123.5C 324.269,122.111 329.269,121.444 334.5,121.5 Z"/></g>
<g><path style="opacity:1" fill="#f48573" d="M 221.5,141.5 C 222.924,143.515 223.59,145.848 223.5,148.5C 222.076,146.485 221.41,144.152 221.5,141.5 Z"/></g>
<g><path style="opacity:1" fill="#fefedf" d="M 98.5,149.5 C 99.8333,221.833 99.8333,294.167 98.5,366.5C 66.4165,328.265 50.7498,283.931 51.5,233.5C 50.4596,217.416 53.2929,202.083 60,187.5C 66.2905,178.42 72.4572,169.253 78.5,160C 85.3667,156.775 92.0334,153.275 98.5,149.5 Z"/></g>
<g><path style="opacity:1" fill="#fbddc3" d="M 98.5,366.5 C 99.8333,294.167 99.8333,221.833 98.5,149.5C 98.7828,148.711 99.2828,148.044 100,147.5C 100.667,221.167 100.667,294.833 100,368.5C 99.2828,367.956 98.7828,367.289 98.5,366.5 Z"/></g>
<g><path style="opacity:1" fill="#f3665c" d="M 28.5,181.5 C 28.4519,184.313 27.7853,186.979 26.5,189.5C 27.6613,191.224 27.4947,192.89 26,194.5C 25.6667,194.167 25.3333,193.833 25,193.5C 24.0977,195.927 23.2644,198.26 22.5,200.5C 23.1032,193.651 25.1032,187.318 28.5,181.5 Z"/></g>
<g><path style="opacity:1" fill="#f46f66" d="M 483.5,206.5 C 484.315,211.681 484.982,217.014 485.5,222.5C 484.244,222.539 483.244,222.039 482.5,221C 483.469,216.263 483.803,211.43 483.5,206.5 Z"/></g>
<g><path style="opacity:0.686" fill="#f79792" d="M 35.5,291.5 C 37.2227,293.78 37.8893,296.447 37.5,299.5C 36.469,297.039 35.8023,294.373 35.5,291.5 Z"/></g>
<g><path style="opacity:0.62" fill="#f9a19b" d="M 486.5,297.5 C 487.906,297.973 488.573,298.973 488.5,300.5C 487.094,300.027 486.427,299.027 486.5,297.5 Z"/></g>
<g><path style="opacity:0.88" fill="#f78981" d="M 488.5,300.5 C 489.043,300.56 489.376,300.893 489.5,301.5C 487.421,304.106 485.421,304.106 483.5,301.5C 485.415,301.784 487.081,301.451 488.5,300.5 Z"/></g>
<g><path style="opacity:0.945" fill="#f7837a" d="M 8.5,363.5 C 9.18342,365.176 10.5168,365.843 12.5,365.5C 10.6886,368.241 9.02191,368.075 7.5,365C 7.56993,364.235 7.90326,363.735 8.5,363.5 Z"/></g>
<g><path style="opacity:1" fill="#f36358" d="M 453.5,359.5 C 451.685,365.292 448.685,370.292 444.5,374.5C 444.489,372.983 443.823,371.816 442.5,371C 445.923,369.216 448.59,366.216 450.5,362C 450.167,361.667 449.833,361.333 449.5,361C 450.563,359.812 451.897,359.312 453.5,359.5 Z"/></g>
<g><path style="opacity:0.965" fill="#f46d63" d="M 17.5,377.5 C 17.5,378.5 17.5,379.5 17.5,380.5C 18.5,380.5 19.5,380.5 20.5,380.5C 17.7257,382.321 15.059,384.321 12.5,386.5C 10.9291,387.309 9.26241,387.643 7.5,387.5C 6.87416,383.625 8.54082,381.791 12.5,382C 13.6508,379.8 15.3175,378.3 17.5,377.5 Z"/></g>
<g><path style="opacity:1" fill="#f6796f" d="M 42.5,406.5 C 42.62,407.586 43.2867,408.253 44.5,408.5C 46.0542,407.628 47.3876,407.628 48.5,408.5C 46.2459,409.415 44.2459,410.748 42.5,412.5C 39.8477,410.462 39.8477,408.462 42.5,406.5 Z"/></g>
<g><path style="opacity:1" fill="#f3675d" d="M 48.5,408.5 C 50.0783,409.066 51.4116,410.066 52.5,411.5C 54.396,412.466 56.396,412.799 58.5,412.5C 56.2854,413.268 53.9521,413.935 51.5,414.5C 48.9407,414.802 46.6074,414.468 44.5,413.5C 45.7489,411.864 47.4156,410.697 49.5,410C 48.944,409.617 48.6107,409.117 48.5,408.5 Z"/></g>
<g><path style="opacity:1" fill="#f25c52" d="M 420.5,398.5 C 417.363,401.165 414.529,404.165 412,407.5C 410.857,410.295 410.357,413.128 410.5,416C 408.08,416.687 405.913,416.187 404,414.5C 402.385,415.386 400.885,416.386 399.5,417.5C 399.662,414.331 401.328,412.331 404.5,411.5C 405.428,413.335 406.594,413.668 408,412.5C 408.199,410.598 409.033,409.098 410.5,408C 409.655,406.442 410.321,405.442 412.5,405C 411.833,404.667 411.167,404.333 410.5,404C 411.563,402.812 412.897,402.312 414.5,402.5C 414.117,399.538 415.117,398.538 417.5,399.5C 418.251,398.624 418.751,397.624 419,396.5C 419.278,397.416 419.778,398.082 420.5,398.5 Z"/></g>
<g><path style="opacity:0.012" fill="#fbc5c2" d="M 44.5,413.5 C 46.6074,414.468 48.9407,414.802 51.5,414.5C 48.6965,415.638 45.6965,415.805 42.5,415C 43.0442,414.283 43.7109,413.783 44.5,413.5 Z"/></g>
<g><path style="opacity:1" fill="#f25f55" d="M 372.5,434.5 C 370.113,436.244 368.446,438.578 367.5,441.5C 363.541,442.327 359.541,442.827 355.5,443C 351.114,445.193 346.78,447.36 342.5,449.5C 342.33,448.178 342.663,447.011 343.5,446C 347.206,443.92 351.039,442.087 355,440.5C 358.707,439.792 362.54,439.792 366.5,440.5C 366.303,436.194 368.303,434.194 372.5,434.5 Z"/></g>
<g><path style="opacity:0.118" fill="#f9bab6" d="M 192.5,458.5 C 191.167,458.5 190.5,459.167 190.5,460.5C 189.733,459.828 189.066,458.995 188.5,458C 190.066,457.235 191.399,457.402 192.5,458.5 Z"/></g>
<g><path style="opacity:1" fill="#f36258" d="M 329.5,453.5 C 325.538,456.488 321.538,459.488 317.5,462.5C 316.948,460.669 316.948,459.003 317.5,457.5C 318.086,457.709 318.586,458.043 319,458.5C 320.584,457.139 322.418,456.472 324.5,456.5C 324.5,455.5 324.5,454.5 324.5,453.5C 326.167,453.5 327.833,453.5 329.5,453.5 Z"/></g>
<g><path style="opacity:1" fill="#f57065" d="M 227.5,467.5 C 223.569,467.931 219.903,469.264 216.5,471.5C 215.588,470.262 215.421,468.928 216,467.5C 219.415,466.951 223.248,466.951 227.5,467.5 Z"/></g>
<g><path style="opacity:1" fill="#f98b81" d="M 301.5,472.5 C 302.5,472.5 303.5,472.5 304.5,472.5C 304.019,476.349 305.686,478.349 309.5,478.5C 308.399,479.598 307.066,479.765 305.5,479C 303.768,477.028 302.435,474.861 301.5,472.5 Z"/></g>
<g><path style="opacity:0.898" fill="#f88f87" d="M 309.5,472.5 C 312.167,474.5 312.167,476.5 309.5,478.5C 309.5,476.5 309.5,474.5 309.5,472.5 Z"/></g>
<g><path style="opacity:0.706" fill="#f79892" d="M 171.5,472.5 C 171.298,474.95 171.631,477.283 172.5,479.5C 171.275,478.848 170.608,477.681 170.5,476C 170.514,474.615 170.848,473.449 171.5,472.5 Z"/></g>
<g><path style="opacity:0.529" fill="#f89994" d="M 272.5,481.5 C 274.027,481.427 275.027,482.094 275.5,483.5C 273.973,483.573 272.973,482.906 272.5,481.5 Z"/></g>
<g><path style="opacity:1" fill="#f57165" d="M 190.5,480.5 C 195.429,481.82 196.596,484.82 194,489.5C 192.629,491.041 191.129,492.375 189.5,493.5C 190.005,490.657 191.005,487.99 192.5,485.5C 191.802,484.137 191.802,482.971 192.5,482C 191.584,481.722 190.918,481.222 190.5,480.5 Z"/></g>
<g><path style="opacity:0.769" fill="#f9a29d" d="M 178.5,496.5 C 180.5,496.5 182.5,496.5 184.5,496.5C 182.5,499.167 180.5,499.167 178.5,496.5 Z"/></g>
</svg>
